<?xml version="1.0" standalone="no"?>
<!DOCTYPE svg PUBLIC "-//W3C//DTD SVG 20010904//EN"
 "http://www.w3.org/TR/2001/REC-SVG-20010904/DTD/svg10.dtd">
<svg version="1.0" xmlns="http://www.w3.org/2000/svg"
 width="348.000000pt" height="348.000000pt" viewBox="0 0 348.000000 348.000000"
 preserveAspectRatio="xMidYMid meet">
<metadata>
Created by potrace 1.14, written by Peter Selinger 2001-2017
</metadata>
<g transform="translate(0.000000,348.000000) scale(0.100000,-0.100000)"
fill="#000000" stroke="none">
<path d="M413 2937 c-3 -4 -10 -6 -16 -4 -16 5 -77 -61 -78 -84 -1 -11 -3 -23
-4 -29 -1 -5 -3 -388 -4 -849 -1 -732 -3 -841 -16 -855 -8 -8 -15 -20 -15 -27
0 -7 -3 -9 -7 -5 -4 3 -12 -2 -17 -12 -10 -17 -64 -83 -121 -148 -11 -13 -31
-37 -44 -54 -14 -18 -37 -46 -53 -62 -28 -30 -28 -31 -28 -164 l0 -134 1735 0
1735 0 0 125 c0 89 -4 126 -13 132 -12 8 -29 28 -91 107 -16 21 -41 50 -56 66
-15 16 -40 45 -56 66 -16 20 -41 50 -56 66 -15 15 -24 28 -20 28 4 0 0 5 -8
10 -13 8 -16 120 -20 872 -4 710 -7 867 -19 888 -15 27 -51 65 -51 54 0 -3 -7
0 -16 7 -14 12 -236 14 -1336 14 -726 0 -1322 -4 -1325 -8z m2496 -121 c15 -8
36 -28 47 -43 17 -27 18 -62 18 -728 0 -668 0 -701 -19 -732 -10 -17 -29 -37
-43 -45 -20 -10 -244 -13 -1181 -13 -1134 1 -1157 1 -1183 20 -54 39 -53 27
-53 773 0 422 3 692 9 692 5 0 6 3 3 6 -11 11 13 44 46 64 31 19 61 20 1180
20 983 0 1152 -2 1176 -14z m-724 -1971 c23 -23 68 -84 63 -86 -12 -6 -1028
-3 -1028 2 0 3 18 29 40 56 l40 49 433 0 c419 -1 433 -2 452 -21z m-177 -169
c18 -11 15 -34 -6 -45 -24 -13 -523 -12 -539 1 -19 15 -16 38 6 46 26 9 523 8
539 -2z"/>
<path d="M1647 2563 c-2 -4 -13 -49 -23 -100 -16 -84 -21 -93 -46 -104 -25
-10 -34 -7 -100 38 -40 27 -78 52 -84 56 -10 6 -45 -23 -108 -91 l-28 -30 55
-82 c49 -74 53 -85 44 -110 -9 -24 -19 -30 -84 -44 -40 -9 -82 -16 -93 -16
-10 0 -22 -5 -26 -12 -7 -12 -9 -166 -2 -173 3 -3 27 -9 83 -20 11 -3 39 -7
63 -11 33 -5 46 -13 57 -34 14 -26 12 -31 -33 -101 -25 -41 -50 -75 -54 -77
-18 -8 -5 -31 50 -85 32 -31 61 -57 65 -57 3 0 44 24 89 54 78 51 84 53 109
41 22 -12 28 -25 44 -109 9 -52 22 -96 29 -98 10 -3 112 -3 157 1 11 1 19 14
23 39 3 20 7 46 9 57 3 11 8 37 12 58 13 65 52 73 122 23 27 -18 62 -41 80
-51 l31 -18 52 49 c29 27 56 56 60 65 7 11 -6 39 -46 97 -53 80 -54 83 -40
111 11 21 24 30 53 34 21 3 49 8 63 11 14 3 40 9 58 12 31 6 32 8 33 58 1 65
-2 120 -7 125 -3 4 -64 17 -165 38 -16 3 -32 16 -38 30 -11 24 -7 34 44 111
l57 85 -63 63 c-55 55 -65 62 -83 52 -12 -6 -23 -14 -26 -18 -3 -3 -23 -17
-45 -30 -22 -13 -46 -30 -53 -37 -16 -15 -23 -16 -55 -4 -19 8 -26 20 -33 58
-11 70 -12 74 -21 113 l-9 35 -86 3 c-48 1 -88 -1 -91 -5z m165 -396 c159 -66
167 -285 14 -362 -60 -30 -116 -32 -171 -5 -77 37 -112 85 -122 169 -4 38 0
57 21 98 50 100 158 142 258 100z"/>
</g>
</svg>
